<svg width="40" height="40" viewBox="0 0 40 40" fill="none" xmlns="http://www.w3.org/2000/svg">
<path d="M39.241 12.4768L20.9598 0.289308C20.3358 -0.0946762 19.6698 -0.0981919 19.0402 0.289308L0.758906 12.4768C0.290156 12.7892 0 13.3474 0 13.9053V26.0927C0 26.6508 0.290156 27.2088 0.758984 27.5213L19.0402 39.7106C19.6642 40.0945 20.3302 40.0981 20.9598 39.7106L39.2411 27.5213C39.7098 27.2089 40.0001 26.6508 40.0001 26.0927V13.9053C40 13.3474 39.7098 12.7892 39.241 12.4768V12.4768ZM21.7188 4.93204L35.1786 13.9053L29.1741 17.9232L21.7188 12.9455V4.93204ZM18.2812 4.93204V12.9455L10.8259 17.9232L4.82141 13.9053L18.2812 4.93204ZM3.4375 17.1196L7.74555 19.9991L3.4375 22.8785V17.1196ZM18.2812 35.0661L4.82141 26.0928L10.8259 22.0749L18.2812 27.0527V35.0661ZM20 24.0616L13.9285 19.9991L20 15.9366L26.0715 19.9991L20 24.0616ZM21.7188 35.0661V27.0527L29.1741 22.0749L35.1786 26.0928L21.7188 35.0661ZM36.5625 22.8785L32.2545 19.9991L36.5625 17.1196V22.8785Z" fill="white"/>
</svg>
