<svg width="40" height="40" viewBox="0 0 40 40" fill="none" xmlns="http://www.w3.org/2000/svg">
<path fill-rule="evenodd" clip-rule="evenodd" d="M19.998 0C8.955 0 0 8.954 0 20.001C0 28.837 5.73 36.333 13.678 38.978C14.678 39.161 15.043 38.543 15.043 38.014C15.043 37.539 15.026 36.282 15.016 34.612C9.453 35.822 8.279 31.932 8.279 31.932C7.369 29.621 6.058 29.006 6.058 29.006C4.242 27.765 6.195 27.791 6.195 27.791C8.203 27.932 9.259 29.851 9.259 29.851C11.043 32.908 13.94 32.025 15.08 31.513C15.261 30.22 15.778 29.339 16.349 28.839C11.908 28.334 7.239 26.618 7.239 18.954C7.239 16.771 8.019 14.986 9.298 13.588C9.092 13.082 8.405 11.048 9.494 8.295C9.494 8.295 11.173 7.757 14.994 10.345C16.589 9.902 18.3 9.679 20.001 9.672C21.7 9.679 23.41 9.902 25.008 10.345C28.826 7.757 30.502 8.295 30.502 8.295C31.593 11.048 30.907 13.082 30.702 13.588C31.984 14.986 32.757 16.771 32.757 18.954C32.757 26.638 28.081 28.328 23.626 28.823C24.343 29.441 24.983 30.661 24.983 32.527C24.983 35.201 24.958 37.359 24.958 38.014C24.958 38.548 25.319 39.171 26.334 38.976C34.275 36.326 40 28.834 40 20.001C40 8.954 31.045 0 19.998 0V0Z" fill="white"/>
</svg>
