<svg width="41" height="40" viewBox="0 0 41 40" fill="none" xmlns="http://www.w3.org/2000/svg">
<path d="M8.95536 40H0.660714V13.2946H8.95536V40V40ZM4.80357 9.65179C2.15179 9.65179 0 7.45536 0 4.80357C0 2.15179 2.15179 0 4.80357 0C7.45536 0 9.60714 2.15179 9.60714 4.80357C9.60714 7.45536 7.45536 9.65179 4.80357 9.65179ZM40 40H31.7232V27C31.7232 23.9018 31.6607 19.9286 27.4107 19.9286C23.0982 19.9286 22.4375 23.2946 22.4375 26.7768V40H14.1518V13.2946H22.1071V16.9375H22.2232C23.3304 14.8393 26.0357 12.625 30.0714 12.625C38.4643 12.625 40.0089 18.1518 40.0089 25.3304V40H40Z" fill="white"/>
</svg>
